# xmcd
#
# Track frame offsets:
#	150
#	16694
#	31215
#	48481
#	66793
#	93012
#	111242
#	127040
#	145194
#	160520
#	178793
#
# Disc length: 2617 seconds
#
# Revision: 3
# Processed by: cddbd v1.5.2PL0 Copyright (c) Steve Scherf et al.
# Submitted via: audiograbber 1.83.01
#
DISCID=870a370b
DTITLE=Jason Isbell - Something More Than Free
DYEAR=2015
DGENRE=Retro
TTITLE0=If It Takes A Lifetime
TTITLE1=24 Frames
TTITLE2=Flagship
TTITLE3=How To Forget
TTITLE4=Children Of Children
TTITLE5=The Life You Chose
TTITLE6=Something More Than Free
TTITLE7=Speed Trap Town
TTITLE8=Hudson Commodore
TTITLE9=Palmetto Rose
TTITLE10=To A Band That I Loved
EXTD=
EXTT0=
EXTT1=
EXTT2=
EXTT3=
EXTT4=
EXTT5=
EXTT6=
EXTT7=
EXTT8=
EXTT9=
EXTT10=
PLAYORDER=
